<mxfile host="app.diagrams.net" agent="Mozilla/5.0 (Windows NT 10.0; Win64; x64) AppleWebKit/537.36 (KHTML, like Gecko) Chrome/130.0.0.0 Safari/537.36" version="24.8.4">
  <diagram name="StrÃ¡nka-1" id="sdZhRAP-UTXTYIbp1Utq">
    <mxGraphModel dx="1429" dy="757" grid="0" gridSize="10" guides="1" tooltips="1" connect="1" arrows="1" fold="1" page="0" pageScale="1" pageWidth="827" pageHeight="1169" background="none" math="0" shadow="0">
      <root>
        <mxCell id="0" />
        <mxCell id="1" parent="0" />
        <mxCell id="6LVos0vK3omcchi-InMu-1" value="&lt;font&gt;address&lt;/font&gt;" style="shape=table;startSize=30;container=1;collapsible=1;childLayout=tableLayout;fixedRows=1;rowLines=0;fontStyle=1;align=center;resizeLast=1;html=1;fontFamily=Helvetica;textShadow=0;textOpacity=80;labelBackgroundColor=none;rounded=1;fillColor=#cce5ff;strokeColor=#36393d;fontColor=#1A1A1A;" vertex="1" parent="1">
          <mxGeometry x="879" y="60" width="240" height="120" as="geometry" />
        </mxCell>
        <mxCell id="6LVos0vK3omcchi-InMu-2" value="" style="shape=tableRow;horizontal=0;startSize=0;swimlaneHead=0;swimlaneBody=0;fillColor=none;collapsible=0;dropTarget=0;points=[[0,0.5],[1,0.5]];portConstraint=eastwest;top=0;left=0;right=0;bottom=1;align=left;fontFamily=Helvetica;textShadow=0;textOpacity=80;labelBackgroundColor=none;strokeColor=#D0CEE2;fontColor=#1A1A1A;rounded=1;" vertex="1" parent="6LVos0vK3omcchi-InMu-1">
          <mxGeometry y="30" width="240" height="30" as="geometry" />
        </mxCell>
        <mxCell id="6LVos0vK3omcchi-InMu-3" value="PK" style="shape=partialRectangle;connectable=0;fillColor=none;top=0;left=0;bottom=0;right=0;fontStyle=1;overflow=hidden;whiteSpace=wrap;html=1;align=center;fontFamily=Helvetica;textShadow=0;textOpacity=80;labelBackgroundColor=none;strokeColor=#D0CEE2;fontColor=#FF6A08;rounded=1;" vertex="1" parent="6LVos0vK3omcchi-InMu-2">
          <mxGeometry width="30" height="30" as="geometry">
            <mxRectangle width="30" height="30" as="alternateBounds" />
          </mxGeometry>
        </mxCell>
        <mxCell id="6LVos0vK3omcchi-InMu-4" value="address_id SERIAL" style="shape=partialRectangle;connectable=0;fillColor=none;top=0;left=0;bottom=0;right=0;align=left;spacingLeft=6;fontStyle=5;overflow=hidden;whiteSpace=wrap;html=1;fontFamily=Helvetica;textShadow=0;textOpacity=80;labelBackgroundColor=none;strokeColor=#D0CEE2;fontColor=#1A1A1A;rounded=1;" vertex="1" parent="6LVos0vK3omcchi-InMu-2">
          <mxGeometry x="30" width="210" height="30" as="geometry">
            <mxRectangle width="210" height="30" as="alternateBounds" />
          </mxGeometry>
        </mxCell>
        <mxCell id="6LVos0vK3omcchi-InMu-5" value="" style="shape=tableRow;horizontal=0;startSize=0;swimlaneHead=0;swimlaneBody=0;fillColor=none;collapsible=0;dropTarget=0;points=[[0,0.5],[1,0.5]];portConstraint=eastwest;top=0;left=0;right=0;bottom=0;align=left;fontFamily=Helvetica;textShadow=0;textOpacity=80;swimlaneFillColor=default;labelBackgroundColor=none;strokeColor=#D0CEE2;fontColor=#1A1A1A;rounded=1;" vertex="1" parent="6LVos0vK3omcchi-InMu-1">
          <mxGeometry y="60" width="240" height="30" as="geometry" />
        </mxCell>
        <mxCell id="6LVos0vK3omcchi-InMu-6" value="" style="shape=partialRectangle;connectable=0;fillColor=none;top=0;left=0;bottom=0;right=0;editable=1;overflow=hidden;whiteSpace=wrap;html=1;align=left;fontFamily=Helvetica;textShadow=0;textOpacity=80;labelBackgroundColor=none;strokeColor=#D0CEE2;fontColor=#1A1A1A;rounded=1;" vertex="1" parent="6LVos0vK3omcchi-InMu-5">
          <mxGeometry width="30" height="30" as="geometry">
            <mxRectangle width="30" height="30" as="alternateBounds" />
          </mxGeometry>
        </mxCell>
        <mxCell id="6LVos0vK3omcchi-InMu-7" value="street VARCHAR(100): NOT NULL" style="shape=partialRectangle;connectable=0;fillColor=none;top=0;left=0;bottom=0;right=0;align=left;spacingLeft=6;overflow=hidden;whiteSpace=wrap;html=1;fontFamily=Helvetica;textShadow=0;textOpacity=80;labelBackgroundColor=none;strokeColor=#D0CEE2;fontColor=#1A1A1A;rounded=1;" vertex="1" parent="6LVos0vK3omcchi-InMu-5">
          <mxGeometry x="30" width="210" height="30" as="geometry">
            <mxRectangle width="210" height="30" as="alternateBounds" />
          </mxGeometry>
        </mxCell>
        <mxCell id="6LVos0vK3omcchi-InMu-8" value="" style="shape=tableRow;horizontal=0;startSize=0;swimlaneHead=0;swimlaneBody=0;fillColor=none;collapsible=0;dropTarget=0;points=[[0,0.5],[1,0.5]];portConstraint=eastwest;top=0;left=0;right=0;bottom=0;align=left;fontFamily=Helvetica;textShadow=0;textOpacity=80;labelBackgroundColor=none;strokeColor=#D0CEE2;fontColor=#1A1A1A;rounded=1;" vertex="1" parent="6LVos0vK3omcchi-InMu-1">
          <mxGeometry y="90" width="240" height="30" as="geometry" />
        </mxCell>
        <mxCell id="6LVos0vK3omcchi-InMu-9" value="" style="shape=partialRectangle;connectable=0;fillColor=none;top=0;left=0;bottom=0;right=0;editable=1;overflow=hidden;whiteSpace=wrap;html=1;align=left;fontFamily=Helvetica;textShadow=0;textOpacity=80;labelBackgroundColor=none;strokeColor=#D0CEE2;fontColor=#1A1A1A;rounded=1;" vertex="1" parent="6LVos0vK3omcchi-InMu-8">
          <mxGeometry width="30" height="30" as="geometry">
            <mxRectangle width="30" height="30" as="alternateBounds" />
          </mxGeometry>
        </mxCell>
        <mxCell id="6LVos0vK3omcchi-InMu-10" value="city VARCHAR(100):&amp;nbsp; &amp;nbsp; NOT NULL" style="shape=partialRectangle;connectable=0;fillColor=none;top=0;left=0;bottom=0;right=0;align=left;spacingLeft=6;overflow=hidden;whiteSpace=wrap;html=1;fontFamily=Helvetica;textShadow=0;textOpacity=80;labelBackgroundColor=none;strokeColor=#D0CEE2;fontColor=#1A1A1A;rounded=1;" vertex="1" parent="6LVos0vK3omcchi-InMu-8">
          <mxGeometry x="30" width="210" height="30" as="geometry">
            <mxRectangle width="210" height="30" as="alternateBounds" />
          </mxGeometry>
        </mxCell>
        <mxCell id="6LVos0vK3omcchi-InMu-14" value="&lt;font&gt;course&lt;/font&gt;" style="shape=table;startSize=30;container=1;collapsible=1;childLayout=tableLayout;fixedRows=1;rowLines=0;fontStyle=1;align=center;resizeLast=1;html=1;fontFamily=Helvetica;textShadow=0;textOpacity=80;labelBackgroundColor=none;fillColor=#cce5ff;strokeColor=#36393d;rounded=1;fontColor=#1A1A1A;" vertex="1" parent="1">
          <mxGeometry x="40" y="210" width="240" height="180" as="geometry" />
        </mxCell>
        <mxCell id="6LVos0vK3omcchi-InMu-15" value="" style="shape=tableRow;horizontal=0;startSize=0;swimlaneHead=0;swimlaneBody=0;fillColor=none;collapsible=0;dropTarget=0;points=[[0,0.5],[1,0.5]];portConstraint=eastwest;top=0;left=0;right=0;bottom=1;align=left;fontFamily=Helvetica;textShadow=0;textOpacity=80;labelBackgroundColor=none;strokeColor=#D0CEE2;fontColor=#1A1A1A;rounded=1;" vertex="1" parent="6LVos0vK3omcchi-InMu-14">
          <mxGeometry y="30" width="240" height="30" as="geometry" />
        </mxCell>
        <mxCell id="6LVos0vK3omcchi-InMu-16" value="PK" style="shape=partialRectangle;connectable=0;fillColor=none;top=0;left=0;bottom=0;right=0;fontStyle=1;overflow=hidden;whiteSpace=wrap;html=1;align=center;fontFamily=Helvetica;textShadow=0;textOpacity=80;labelBackgroundColor=none;strokeColor=#D0CEE2;fontColor=#FF6A08;rounded=1;" vertex="1" parent="6LVos0vK3omcchi-InMu-15">
          <mxGeometry width="30" height="30" as="geometry">
            <mxRectangle width="30" height="30" as="alternateBounds" />
          </mxGeometry>
        </mxCell>
        <mxCell id="6LVos0vK3omcchi-InMu-17" value="course_id SERIAL" style="shape=partialRectangle;connectable=0;fillColor=none;top=0;left=0;bottom=0;right=0;align=left;spacingLeft=6;fontStyle=5;overflow=hidden;whiteSpace=wrap;html=1;fontFamily=Helvetica;textShadow=0;textOpacity=80;labelBackgroundColor=none;strokeColor=#D0CEE2;fontColor=#1A1A1A;rounded=1;" vertex="1" parent="6LVos0vK3omcchi-InMu-15">
          <mxGeometry x="30" width="210" height="30" as="geometry">
            <mxRectangle width="210" height="30" as="alternateBounds" />
          </mxGeometry>
        </mxCell>
        <mxCell id="6LVos0vK3omcchi-InMu-18" value="" style="shape=tableRow;horizontal=0;startSize=0;swimlaneHead=0;swimlaneBody=0;fillColor=none;collapsible=0;dropTarget=0;points=[[0,0.5],[1,0.5]];portConstraint=eastwest;top=0;left=0;right=0;bottom=0;align=left;fontFamily=Helvetica;textShadow=0;textOpacity=80;labelBackgroundColor=none;strokeColor=#D0CEE2;fontColor=#1A1A1A;rounded=1;" vertex="1" parent="6LVos0vK3omcchi-InMu-14">
          <mxGeometry y="60" width="240" height="30" as="geometry" />
        </mxCell>
        <mxCell id="6LVos0vK3omcchi-InMu-19" value="&lt;b&gt;&lt;font color=&quot;#0066cc&quot;&gt;FK&lt;/font&gt;&lt;/b&gt;" style="shape=partialRectangle;connectable=0;fillColor=none;top=0;left=0;bottom=0;right=0;editable=1;overflow=hidden;whiteSpace=wrap;html=1;align=center;fontFamily=Helvetica;textShadow=0;textOpacity=80;labelBackgroundColor=none;strokeColor=#D0CEE2;fontColor=#1A1A1A;rounded=1;" vertex="1" parent="6LVos0vK3omcchi-InMu-18">
          <mxGeometry width="30" height="30" as="geometry">
            <mxRectangle width="30" height="30" as="alternateBounds" />
          </mxGeometry>
        </mxCell>
        <mxCell id="6LVos0vK3omcchi-InMu-20" value="topic_ id SMALLINT:&amp;nbsp; &amp;nbsp; &amp;nbsp; &amp;nbsp; &amp;nbsp;NOT NULL" style="shape=partialRectangle;connectable=0;fillColor=none;top=0;left=0;bottom=0;right=0;align=left;spacingLeft=6;overflow=hidden;whiteSpace=wrap;html=1;fontFamily=Helvetica;textShadow=0;textOpacity=80;labelBackgroundColor=none;strokeColor=#D0CEE2;fontColor=#1A1A1A;rounded=1;" vertex="1" parent="6LVos0vK3omcchi-InMu-18">
          <mxGeometry x="30" width="210" height="30" as="geometry">
            <mxRectangle width="210" height="30" as="alternateBounds" />
          </mxGeometry>
        </mxCell>
        <mxCell id="6LVos0vK3omcchi-InMu-21" value="" style="shape=tableRow;horizontal=0;startSize=0;swimlaneHead=0;swimlaneBody=0;fillColor=none;collapsible=0;dropTarget=0;points=[[0,0.5],[1,0.5]];portConstraint=eastwest;top=0;left=0;right=0;bottom=0;align=left;fontFamily=Helvetica;textShadow=0;textOpacity=80;labelBackgroundColor=none;strokeColor=#D0CEE2;fontColor=#1A1A1A;rounded=1;" vertex="1" parent="6LVos0vK3omcchi-InMu-14">
          <mxGeometry y="90" width="240" height="30" as="geometry" />
        </mxCell>
        <mxCell id="6LVos0vK3omcchi-InMu-22" value="&lt;b&gt;FK&lt;/b&gt;" style="shape=partialRectangle;connectable=0;fillColor=none;top=0;left=0;bottom=0;right=0;editable=1;overflow=hidden;whiteSpace=wrap;html=1;align=center;fontFamily=Helvetica;textShadow=0;textOpacity=80;labelBackgroundColor=none;strokeColor=#D0CEE2;fontColor=#0066CC;rounded=1;" vertex="1" parent="6LVos0vK3omcchi-InMu-21">
          <mxGeometry width="30" height="30" as="geometry">
            <mxRectangle width="30" height="30" as="alternateBounds" />
          </mxGeometry>
        </mxCell>
        <mxCell id="6LVos0vK3omcchi-InMu-23" value="trainer_id SMALLINT:&amp;nbsp; &amp;nbsp; &amp;nbsp; &amp;nbsp;NOT NULL" style="shape=partialRectangle;connectable=0;fillColor=none;top=0;left=0;bottom=0;right=0;align=left;spacingLeft=6;overflow=hidden;whiteSpace=wrap;html=1;fontFamily=Helvetica;textShadow=0;textOpacity=80;labelBackgroundColor=none;strokeColor=#D0CEE2;fontColor=#1A1A1A;rounded=1;" vertex="1" parent="6LVos0vK3omcchi-InMu-21">
          <mxGeometry x="30" width="210" height="30" as="geometry">
            <mxRectangle width="210" height="30" as="alternateBounds" />
          </mxGeometry>
        </mxCell>
        <mxCell id="6LVos0vK3omcchi-InMu-24" value="" style="shape=tableRow;horizontal=0;startSize=0;swimlaneHead=0;swimlaneBody=0;fillColor=none;collapsible=0;dropTarget=0;points=[[0,0.5],[1,0.5]];portConstraint=eastwest;top=0;left=0;right=0;bottom=0;align=left;fontFamily=Helvetica;textShadow=0;textOpacity=80;labelBackgroundColor=none;strokeColor=#D0CEE2;fontColor=#1A1A1A;rounded=1;" vertex="1" parent="6LVos0vK3omcchi-InMu-14">
          <mxGeometry y="120" width="240" height="30" as="geometry" />
        </mxCell>
        <mxCell id="6LVos0vK3omcchi-InMu-25" value="" style="shape=partialRectangle;connectable=0;fillColor=none;top=0;left=0;bottom=0;right=0;editable=1;overflow=hidden;whiteSpace=wrap;html=1;align=left;fontFamily=Helvetica;textShadow=0;textOpacity=80;labelBackgroundColor=none;strokeColor=#D0CEE2;fontColor=#1A1A1A;rounded=1;" vertex="1" parent="6LVos0vK3omcchi-InMu-24">
          <mxGeometry width="30" height="30" as="geometry">
            <mxRectangle width="30" height="30" as="alternateBounds" />
          </mxGeometry>
        </mxCell>
        <mxCell id="6LVos0vK3omcchi-InMu-26" value="start_date TIMESTAMP:&amp;nbsp; NOT NULL" style="shape=partialRectangle;connectable=0;fillColor=none;top=0;left=0;bottom=0;right=0;align=left;spacingLeft=6;overflow=hidden;whiteSpace=wrap;html=1;fontFamily=Helvetica;textShadow=0;textOpacity=80;labelBackgroundColor=none;strokeColor=#D0CEE2;fontColor=#1A1A1A;rounded=1;" vertex="1" parent="6LVos0vK3omcchi-InMu-24">
          <mxGeometry x="30" width="210" height="30" as="geometry">
            <mxRectangle width="210" height="30" as="alternateBounds" />
          </mxGeometry>
        </mxCell>
        <mxCell id="6LVos0vK3omcchi-InMu-86" value="" style="shape=tableRow;horizontal=0;startSize=0;swimlaneHead=0;swimlaneBody=0;fillColor=none;collapsible=0;dropTarget=0;points=[[0,0.5],[1,0.5]];portConstraint=eastwest;top=0;left=0;right=0;bottom=0;align=left;fontFamily=Helvetica;textShadow=0;textOpacity=80;labelBackgroundColor=none;strokeColor=#D0CEE2;fontColor=#1A1A1A;rounded=1;" vertex="1" parent="6LVos0vK3omcchi-InMu-14">
          <mxGeometry y="150" width="240" height="30" as="geometry" />
        </mxCell>
        <mxCell id="6LVos0vK3omcchi-InMu-87" value="" style="shape=partialRectangle;connectable=0;fillColor=none;top=0;left=0;bottom=0;right=0;editable=1;overflow=hidden;whiteSpace=wrap;html=1;align=left;fontFamily=Helvetica;textShadow=0;textOpacity=80;labelBackgroundColor=none;strokeColor=#D0CEE2;fontColor=#1A1A1A;rounded=1;" vertex="1" parent="6LVos0vK3omcchi-InMu-86">
          <mxGeometry width="30" height="30" as="geometry">
            <mxRectangle width="30" height="30" as="alternateBounds" />
          </mxGeometry>
        </mxCell>
        <mxCell id="6LVos0vK3omcchi-InMu-88" value="end_date TIMESTAMP:&amp;nbsp; &amp;nbsp;NOT NULL" style="shape=partialRectangle;connectable=0;fillColor=none;top=0;left=0;bottom=0;right=0;align=left;spacingLeft=6;overflow=hidden;whiteSpace=wrap;html=1;fontFamily=Helvetica;textShadow=0;textOpacity=80;labelBackgroundColor=none;strokeColor=#D0CEE2;fontColor=#1A1A1A;rounded=1;" vertex="1" parent="6LVos0vK3omcchi-InMu-86">
          <mxGeometry x="30" width="210" height="30" as="geometry">
            <mxRectangle width="210" height="30" as="alternateBounds" />
          </mxGeometry>
        </mxCell>
        <mxCell id="6LVos0vK3omcchi-InMu-27" value="&lt;font&gt;student.signup&lt;/font&gt;" style="shape=table;startSize=30;container=1;collapsible=1;childLayout=tableLayout;fixedRows=1;rowLines=0;fontStyle=1;align=center;resizeLast=1;html=1;fontFamily=Helvetica;textShadow=0;textOpacity=80;labelBackgroundColor=none;fillColor=#cce5ff;strokeColor=#36393d;rounded=1;fontColor=#1A1A1A;" vertex="1" parent="1">
          <mxGeometry x="555" y="240" width="180" height="150" as="geometry" />
        </mxCell>
        <mxCell id="6LVos0vK3omcchi-InMu-28" value="" style="shape=tableRow;horizontal=0;startSize=0;swimlaneHead=0;swimlaneBody=0;fillColor=none;collapsible=0;dropTarget=0;points=[[0,0.5],[1,0.5]];portConstraint=eastwest;top=0;left=0;right=0;bottom=1;align=left;fontFamily=Helvetica;textShadow=0;textOpacity=80;labelBackgroundColor=none;strokeColor=#D0CEE2;fontColor=#1A1A1A;rounded=1;" vertex="1" parent="6LVos0vK3omcchi-InMu-27">
          <mxGeometry y="30" width="180" height="30" as="geometry" />
        </mxCell>
        <mxCell id="6LVos0vK3omcchi-InMu-29" value="&lt;font color=&quot;#ff6a08&quot;&gt;PK&lt;/font&gt;" style="shape=partialRectangle;connectable=0;fillColor=none;top=0;left=0;bottom=0;right=0;fontStyle=1;overflow=hidden;whiteSpace=wrap;html=1;align=center;fontFamily=Helvetica;textShadow=0;textOpacity=80;labelBackgroundColor=none;strokeColor=#D0CEE2;fontColor=#1A1A1A;rounded=1;" vertex="1" parent="6LVos0vK3omcchi-InMu-28">
          <mxGeometry width="30" height="30" as="geometry">
            <mxRectangle width="30" height="30" as="alternateBounds" />
          </mxGeometry>
        </mxCell>
        <mxCell id="6LVos0vK3omcchi-InMu-30" value="signup_id SERIAL" style="shape=partialRectangle;connectable=0;fillColor=none;top=0;left=0;bottom=0;right=0;align=left;spacingLeft=6;fontStyle=5;overflow=hidden;whiteSpace=wrap;html=1;fontFamily=Helvetica;textShadow=0;textOpacity=80;labelBackgroundColor=none;strokeColor=#D0CEE2;fontColor=#1A1A1A;rounded=1;" vertex="1" parent="6LVos0vK3omcchi-InMu-28">
          <mxGeometry x="30" width="150" height="30" as="geometry">
            <mxRectangle width="150" height="30" as="alternateBounds" />
          </mxGeometry>
        </mxCell>
        <mxCell id="6LVos0vK3omcchi-InMu-31" value="" style="shape=tableRow;horizontal=0;startSize=0;swimlaneHead=0;swimlaneBody=0;fillColor=none;collapsible=0;dropTarget=0;points=[[0,0.5],[1,0.5]];portConstraint=eastwest;top=0;left=0;right=0;bottom=0;align=left;fontFamily=Helvetica;textShadow=0;textOpacity=80;labelBackgroundColor=none;strokeColor=#D0CEE2;fontColor=#1A1A1A;rounded=1;" vertex="1" parent="6LVos0vK3omcchi-InMu-27">
          <mxGeometry y="60" width="180" height="30" as="geometry" />
        </mxCell>
        <mxCell id="6LVos0vK3omcchi-InMu-32" value="" style="shape=partialRectangle;connectable=0;fillColor=none;top=0;left=0;bottom=0;right=0;editable=1;overflow=hidden;whiteSpace=wrap;html=1;align=left;fontFamily=Helvetica;textShadow=0;textOpacity=80;labelBackgroundColor=none;strokeColor=#D0CEE2;fontColor=#1A1A1A;rounded=1;" vertex="1" parent="6LVos0vK3omcchi-InMu-31">
          <mxGeometry width="30" height="30" as="geometry">
            <mxRectangle width="30" height="30" as="alternateBounds" />
          </mxGeometry>
        </mxCell>
        <mxCell id="6LVos0vK3omcchi-InMu-33" value="Row 1" style="shape=partialRectangle;connectable=0;fillColor=none;top=0;left=0;bottom=0;right=0;align=left;spacingLeft=6;overflow=hidden;whiteSpace=wrap;html=1;fontFamily=Helvetica;textShadow=0;textOpacity=80;labelBackgroundColor=none;strokeColor=#D0CEE2;fontColor=#1A1A1A;rounded=1;" vertex="1" parent="6LVos0vK3omcchi-InMu-31">
          <mxGeometry x="30" width="150" height="30" as="geometry">
            <mxRectangle width="150" height="30" as="alternateBounds" />
          </mxGeometry>
        </mxCell>
        <mxCell id="6LVos0vK3omcchi-InMu-34" value="" style="shape=tableRow;horizontal=0;startSize=0;swimlaneHead=0;swimlaneBody=0;fillColor=none;collapsible=0;dropTarget=0;points=[[0,0.5],[1,0.5]];portConstraint=eastwest;top=0;left=0;right=0;bottom=0;align=left;fontFamily=Helvetica;textShadow=0;textOpacity=80;labelBackgroundColor=none;strokeColor=#D0CEE2;fontColor=#1A1A1A;rounded=1;" vertex="1" parent="6LVos0vK3omcchi-InMu-27">
          <mxGeometry y="90" width="180" height="30" as="geometry" />
        </mxCell>
        <mxCell id="6LVos0vK3omcchi-InMu-35" value="" style="shape=partialRectangle;connectable=0;fillColor=none;top=0;left=0;bottom=0;right=0;editable=1;overflow=hidden;whiteSpace=wrap;html=1;align=left;fontFamily=Helvetica;textShadow=0;textOpacity=80;labelBackgroundColor=none;strokeColor=#D0CEE2;fontColor=#1A1A1A;rounded=1;" vertex="1" parent="6LVos0vK3omcchi-InMu-34">
          <mxGeometry width="30" height="30" as="geometry">
            <mxRectangle width="30" height="30" as="alternateBounds" />
          </mxGeometry>
        </mxCell>
        <mxCell id="6LVos0vK3omcchi-InMu-36" value="Row 2" style="shape=partialRectangle;connectable=0;fillColor=none;top=0;left=0;bottom=0;right=0;align=left;spacingLeft=6;overflow=hidden;whiteSpace=wrap;html=1;fontFamily=Helvetica;textShadow=0;textOpacity=80;labelBackgroundColor=none;strokeColor=#D0CEE2;fontColor=#1A1A1A;rounded=1;" vertex="1" parent="6LVos0vK3omcchi-InMu-34">
          <mxGeometry x="30" width="150" height="30" as="geometry">
            <mxRectangle width="150" height="30" as="alternateBounds" />
          </mxGeometry>
        </mxCell>
        <mxCell id="6LVos0vK3omcchi-InMu-37" value="" style="shape=tableRow;horizontal=0;startSize=0;swimlaneHead=0;swimlaneBody=0;fillColor=none;collapsible=0;dropTarget=0;points=[[0,0.5],[1,0.5]];portConstraint=eastwest;top=0;left=0;right=0;bottom=0;align=left;fontFamily=Helvetica;textShadow=0;textOpacity=80;labelBackgroundColor=none;strokeColor=#D0CEE2;fontColor=#1A1A1A;rounded=1;" vertex="1" parent="6LVos0vK3omcchi-InMu-27">
          <mxGeometry y="120" width="180" height="30" as="geometry" />
        </mxCell>
        <mxCell id="6LVos0vK3omcchi-InMu-38" value="" style="shape=partialRectangle;connectable=0;fillColor=none;top=0;left=0;bottom=0;right=0;editable=1;overflow=hidden;whiteSpace=wrap;html=1;align=left;fontFamily=Helvetica;textShadow=0;textOpacity=80;labelBackgroundColor=none;strokeColor=#D0CEE2;fontColor=#1A1A1A;rounded=1;" vertex="1" parent="6LVos0vK3omcchi-InMu-37">
          <mxGeometry width="30" height="30" as="geometry">
            <mxRectangle width="30" height="30" as="alternateBounds" />
          </mxGeometry>
        </mxCell>
        <mxCell id="6LVos0vK3omcchi-InMu-39" value="Row 3" style="shape=partialRectangle;connectable=0;fillColor=none;top=0;left=0;bottom=0;right=0;align=left;spacingLeft=6;overflow=hidden;whiteSpace=wrap;html=1;fontFamily=Helvetica;textShadow=0;textOpacity=80;labelBackgroundColor=none;strokeColor=#D0CEE2;fontColor=#1A1A1A;rounded=1;" vertex="1" parent="6LVos0vK3omcchi-InMu-37">
          <mxGeometry x="30" width="150" height="30" as="geometry">
            <mxRectangle width="150" height="30" as="alternateBounds" />
          </mxGeometry>
        </mxCell>
        <mxCell id="6LVos0vK3omcchi-InMu-40" value="&lt;font&gt;student&lt;/font&gt;" style="shape=table;startSize=30;container=1;collapsible=1;childLayout=tableLayout;fixedRows=1;rowLines=0;fontStyle=1;align=center;resizeLast=1;html=1;fontFamily=Helvetica;textShadow=0;textOpacity=80;labelBackgroundColor=none;fillColor=#cce5ff;strokeColor=#36393d;rounded=1;fontColor=#1A1A1A;" vertex="1" parent="1">
          <mxGeometry x="49" y="420" width="260" height="180" as="geometry" />
        </mxCell>
        <mxCell id="6LVos0vK3omcchi-InMu-41" value="" style="shape=tableRow;horizontal=0;startSize=0;swimlaneHead=0;swimlaneBody=0;fillColor=none;collapsible=0;dropTarget=0;points=[[0,0.5],[1,0.5]];portConstraint=eastwest;top=0;left=0;right=0;bottom=1;align=left;fontFamily=Helvetica;textShadow=0;textOpacity=80;labelBackgroundColor=none;strokeColor=#D0CEE2;fontColor=#1A1A1A;rounded=1;" vertex="1" parent="6LVos0vK3omcchi-InMu-40">
          <mxGeometry y="30" width="260" height="30" as="geometry" />
        </mxCell>
        <mxCell id="6LVos0vK3omcchi-InMu-42" value="PK" style="shape=partialRectangle;connectable=0;fillColor=none;top=0;left=0;bottom=0;right=0;fontStyle=1;overflow=hidden;whiteSpace=wrap;html=1;align=center;fontFamily=Helvetica;textShadow=0;textOpacity=80;labelBackgroundColor=none;strokeColor=#D0CEE2;fontColor=#FF6A08;rounded=1;" vertex="1" parent="6LVos0vK3omcchi-InMu-41">
          <mxGeometry width="30" height="30" as="geometry">
            <mxRectangle width="30" height="30" as="alternateBounds" />
          </mxGeometry>
        </mxCell>
        <mxCell id="6LVos0vK3omcchi-InMu-43" value="student_ID SERIAL" style="shape=partialRectangle;connectable=0;fillColor=none;top=0;left=0;bottom=0;right=0;align=left;spacingLeft=6;fontStyle=5;overflow=hidden;whiteSpace=wrap;html=1;fontFamily=Helvetica;textShadow=0;textOpacity=80;labelBackgroundColor=none;strokeColor=#D0CEE2;fontColor=#1A1A1A;rounded=1;" vertex="1" parent="6LVos0vK3omcchi-InMu-41">
          <mxGeometry x="30" width="230" height="30" as="geometry">
            <mxRectangle width="230" height="30" as="alternateBounds" />
          </mxGeometry>
        </mxCell>
        <mxCell id="6LVos0vK3omcchi-InMu-44" value="" style="shape=tableRow;horizontal=0;startSize=0;swimlaneHead=0;swimlaneBody=0;fillColor=none;collapsible=0;dropTarget=0;points=[[0,0.5],[1,0.5]];portConstraint=eastwest;top=0;left=0;right=0;bottom=0;align=left;fontFamily=Helvetica;textShadow=0;textOpacity=80;labelBackgroundColor=none;strokeColor=#D0CEE2;fontColor=#1A1A1A;rounded=1;" vertex="1" parent="6LVos0vK3omcchi-InMu-40">
          <mxGeometry y="60" width="260" height="30" as="geometry" />
        </mxCell>
        <mxCell id="6LVos0vK3omcchi-InMu-45" value="" style="shape=partialRectangle;connectable=0;fillColor=none;top=0;left=0;bottom=0;right=0;editable=1;overflow=hidden;whiteSpace=wrap;html=1;align=left;fontFamily=Helvetica;textShadow=0;textOpacity=80;labelBackgroundColor=none;strokeColor=#D0CEE2;fontColor=#1A1A1A;rounded=1;" vertex="1" parent="6LVos0vK3omcchi-InMu-44">
          <mxGeometry width="30" height="30" as="geometry">
            <mxRectangle width="30" height="30" as="alternateBounds" />
          </mxGeometry>
        </mxCell>
        <mxCell id="6LVos0vK3omcchi-InMu-46" value="first_name VARCHAR(50): NOT NULL" style="shape=partialRectangle;connectable=0;fillColor=none;top=0;left=0;bottom=0;right=0;align=left;spacingLeft=6;overflow=hidden;whiteSpace=wrap;html=1;fontFamily=Helvetica;textShadow=0;textOpacity=80;labelBackgroundColor=none;strokeColor=#D0CEE2;fontColor=#1A1A1A;rounded=1;" vertex="1" parent="6LVos0vK3omcchi-InMu-44">
          <mxGeometry x="30" width="230" height="30" as="geometry">
            <mxRectangle width="230" height="30" as="alternateBounds" />
          </mxGeometry>
        </mxCell>
        <mxCell id="6LVos0vK3omcchi-InMu-47" value="" style="shape=tableRow;horizontal=0;startSize=0;swimlaneHead=0;swimlaneBody=0;fillColor=none;collapsible=0;dropTarget=0;points=[[0,0.5],[1,0.5]];portConstraint=eastwest;top=0;left=0;right=0;bottom=0;align=left;fontFamily=Helvetica;textShadow=0;textOpacity=80;labelBackgroundColor=none;strokeColor=#D0CEE2;fontColor=#1A1A1A;rounded=1;" vertex="1" parent="6LVos0vK3omcchi-InMu-40">
          <mxGeometry y="90" width="260" height="30" as="geometry" />
        </mxCell>
        <mxCell id="6LVos0vK3omcchi-InMu-48" value="" style="shape=partialRectangle;connectable=0;fillColor=none;top=0;left=0;bottom=0;right=0;editable=1;overflow=hidden;whiteSpace=wrap;html=1;align=left;fontFamily=Helvetica;textShadow=0;textOpacity=80;labelBackgroundColor=none;strokeColor=#D0CEE2;fontColor=#1A1A1A;rounded=1;" vertex="1" parent="6LVos0vK3omcchi-InMu-47">
          <mxGeometry width="30" height="30" as="geometry">
            <mxRectangle width="30" height="30" as="alternateBounds" />
          </mxGeometry>
        </mxCell>
        <mxCell id="6LVos0vK3omcchi-InMu-49" value="last_name VARCHAR(50): NOT NULL" style="shape=partialRectangle;connectable=0;fillColor=none;top=0;left=0;bottom=0;right=0;align=left;spacingLeft=6;overflow=hidden;whiteSpace=wrap;html=1;fontFamily=Helvetica;textShadow=0;textOpacity=80;labelBackgroundColor=none;strokeColor=#D0CEE2;fontColor=#1A1A1A;rounded=1;" vertex="1" parent="6LVos0vK3omcchi-InMu-47">
          <mxGeometry x="30" width="230" height="30" as="geometry">
            <mxRectangle width="230" height="30" as="alternateBounds" />
          </mxGeometry>
        </mxCell>
        <mxCell id="6LVos0vK3omcchi-InMu-50" value="" style="shape=tableRow;horizontal=0;startSize=0;swimlaneHead=0;swimlaneBody=0;fillColor=none;collapsible=0;dropTarget=0;points=[[0,0.5],[1,0.5]];portConstraint=eastwest;top=0;left=0;right=0;bottom=0;align=left;fontFamily=Helvetica;textShadow=0;textOpacity=80;labelBackgroundColor=none;strokeColor=#D0CEE2;fontColor=#1A1A1A;rounded=1;" vertex="1" parent="6LVos0vK3omcchi-InMu-40">
          <mxGeometry y="120" width="260" height="30" as="geometry" />
        </mxCell>
        <mxCell id="6LVos0vK3omcchi-InMu-51" value="" style="shape=partialRectangle;connectable=0;fillColor=none;top=0;left=0;bottom=0;right=0;editable=1;overflow=hidden;whiteSpace=wrap;html=1;align=left;fontFamily=Helvetica;textShadow=0;textOpacity=80;labelBackgroundColor=none;strokeColor=#D0CEE2;fontColor=#1A1A1A;rounded=1;" vertex="1" parent="6LVos0vK3omcchi-InMu-50">
          <mxGeometry width="30" height="30" as="geometry">
            <mxRectangle width="30" height="30" as="alternateBounds" />
          </mxGeometry>
        </mxCell>
        <mxCell id="6LVos0vK3omcchi-InMu-52" value="email VARCHAR(100):&amp;nbsp; &amp;nbsp; &amp;nbsp; &amp;nbsp;NOT NULL" style="shape=partialRectangle;connectable=0;fillColor=none;top=0;left=0;bottom=0;right=0;align=left;spacingLeft=6;overflow=hidden;whiteSpace=wrap;html=1;fontFamily=Helvetica;textShadow=0;textOpacity=80;labelBackgroundColor=none;strokeColor=#D0CEE2;fontColor=#1A1A1A;rounded=1;" vertex="1" parent="6LVos0vK3omcchi-InMu-50">
          <mxGeometry x="30" width="230" height="30" as="geometry">
            <mxRectangle width="230" height="30" as="alternateBounds" />
          </mxGeometry>
        </mxCell>
        <mxCell id="6LVos0vK3omcchi-InMu-89" value="" style="shape=tableRow;horizontal=0;startSize=0;swimlaneHead=0;swimlaneBody=0;fillColor=none;collapsible=0;dropTarget=0;points=[[0,0.5],[1,0.5]];portConstraint=eastwest;top=0;left=0;right=0;bottom=0;align=left;fontFamily=Helvetica;textShadow=0;textOpacity=80;labelBackgroundColor=none;strokeColor=#D0CEE2;fontColor=#1A1A1A;rounded=1;" vertex="1" parent="6LVos0vK3omcchi-InMu-40">
          <mxGeometry y="150" width="260" height="30" as="geometry" />
        </mxCell>
        <mxCell id="6LVos0vK3omcchi-InMu-90" value="&lt;b&gt;FK&lt;/b&gt;" style="shape=partialRectangle;connectable=0;fillColor=none;top=0;left=0;bottom=0;right=0;editable=1;overflow=hidden;whiteSpace=wrap;html=1;align=center;fontFamily=Helvetica;textShadow=0;textOpacity=80;labelBackgroundColor=none;strokeColor=#D0CEE2;fontColor=#0066CC;rounded=1;" vertex="1" parent="6LVos0vK3omcchi-InMu-89">
          <mxGeometry width="30" height="30" as="geometry">
            <mxRectangle width="30" height="30" as="alternateBounds" />
          </mxGeometry>
        </mxCell>
        <mxCell id="6LVos0vK3omcchi-InMu-91" value="address_id INT: &lt;span style=&quot;white-space: pre;&quot;&gt;&#x9;&lt;/span&gt;&lt;span style=&quot;white-space: pre;&quot;&gt;&#x9;&lt;/span&gt;&amp;nbsp; &amp;nbsp;NOT NULL" style="shape=partialRectangle;connectable=0;fillColor=none;top=0;left=0;bottom=0;right=0;align=left;spacingLeft=6;overflow=hidden;whiteSpace=wrap;html=1;fontFamily=Helvetica;textShadow=0;textOpacity=80;labelBackgroundColor=none;strokeColor=#D0CEE2;fontColor=#1A1A1A;rounded=1;" vertex="1" parent="6LVos0vK3omcchi-InMu-89">
          <mxGeometry x="30" width="230" height="30" as="geometry">
            <mxRectangle width="230" height="30" as="alternateBounds" />
          </mxGeometry>
        </mxCell>
        <mxCell id="6LVos0vK3omcchi-InMu-53" value="&lt;font&gt;topic&lt;span style=&quot;font-size: 0px; font-weight: 400;&quot;&gt;%3CmxGraphModel%3E%3Croot%3E%3CmxCell%20id%3D%220%22%2F%3E%3CmxCell%20id%3D%221%22%20parent%3D%220%22%2F%3E%3CmxCell%20id%3D%222%22%20value%3D%22address%22%20style%3D%22shape%3Dtable%3BstartSize%3D30%3Bcontainer%3D1%3Bcollapsible%3D1%3BchildLayout%3DtableLayout%3BfixedRows%3D1%3BrowLines%3D0%3BfontStyle%3D1%3Balign%3Dcenter%3BresizeLast%3D1%3Bhtml%3D1%3B%22%20vertex%3D%221%22%20parent%3D%221%22%3E%3CmxGeometry%20x%3D%2240%22%20y%3D%2270%22%20width%3D%22180%22%20height%3D%22150%22%20as%3D%22geometry%22%2F%3E%3C%2FmxCell%3E%3CmxCell%20id%3D%223%22%20value%3D%22%22%20style%3D%22shape%3DtableRow%3Bhorizontal%3D0%3BstartSize%3D0%3BswimlaneHead%3D0%3BswimlaneBody%3D0%3BfillColor%3Dnone%3Bcollapsible%3D0%3BdropTarget%3D0%3Bpoints%3D%5B%5B0%2C0.5%5D%2C%5B1%2C0.5%5D%5D%3BportConstraint%3Deastwest%3Btop%3D0%3Bleft%3D0%3Bright%3D0%3Bbottom%3D1%3B%22%20vertex%3D%221%22%20parent%3D%222%22%3E%3CmxGeometry%20y%3D%2230%22%20width%3D%22180%22%20height%3D%2230%22%20as%3D%22geometry%22%2F%3E%3C%2FmxCell%3E%3CmxCell%20id%3D%224%22%20value%3D%22PK%22%20style%3D%22shape%3DpartialRectangle%3Bconnectable%3D0%3BfillColor%3Dnone%3Btop%3D0%3Bleft%3D0%3Bbottom%3D0%3Bright%3D0%3BfontStyle%3D1%3Boverflow%3Dhidden%3BwhiteSpace%3Dwrap%3Bhtml%3D1%3B%22%20vertex%3D%221%22%20parent%3D%223%22%3E%3CmxGeometry%20width%3D%2230%22%20height%3D%2230%22%20as%3D%22geometry%22%3E%3CmxRectangle%20width%3D%2230%22%20height%3D%2230%22%20as%3D%22alternateBounds%22%2F%3E%3C%2FmxGeometry%3E%3C%2FmxCell%3E%3CmxCell%20id%3D%225%22%20value%3D%22UniqueID%22%20style%3D%22shape%3DpartialRectangle%3Bconnectable%3D0%3BfillColor%3Dnone%3Btop%3D0%3Bleft%3D0%3Bbottom%3D0%3Bright%3D0%3Balign%3Dleft%3BspacingLeft%3D6%3BfontStyle%3D5%3Boverflow%3Dhidden%3BwhiteSpace%3Dwrap%3Bhtml%3D1%3B%22%20vertex%3D%221%22%20parent%3D%223%22%3E%3CmxGeometry%20x%3D%2230%22%20width%3D%22150%22%20height%3D%2230%22%20as%3D%22geometry%22%3E%3CmxRectangle%20width%3D%22150%22%20height%3D%2230%22%20as%3D%22alternateBounds%22%2F%3E%3C%2FmxGeometry%3E%3C%2FmxCell%3E%3CmxCell%20id%3D%226%22%20value%3D%22%22%20style%3D%22shape%3DtableRow%3Bhorizontal%3D0%3BstartSize%3D0%3BswimlaneHead%3D0%3BswimlaneBody%3D0%3BfillColor%3Dnone%3Bcollapsible%3D0%3BdropTarget%3D0%3Bpoints%3D%5B%5B0%2C0.5%5D%2C%5B1%2C0.5%5D%5D%3BportConstraint%3Deastwest%3Btop%3D0%3Bleft%3D0%3Bright%3D0%3Bbottom%3D0%3B%22%20vertex%3D%221%22%20parent%3D%222%22%3E%3CmxGeometry%20y%3D%2260%22%20width%3D%22180%22%20height%3D%2230%22%20as%3D%22geometry%22%2F%3E%3C%2FmxCell%3E%3CmxCell%20id%3D%227%22%20value%3D%22%22%20style%3D%22shape%3DpartialRectangle%3Bconnectable%3D0%3BfillColor%3Dnone%3Btop%3D0%3Bleft%3D0%3Bbottom%3D0%3Bright%3D0%3Beditable%3D1%3Boverflow%3Dhidden%3BwhiteSpace%3Dwrap%3Bhtml%3D1%3B%22%20vertex%3D%221%22%20parent%3D%226%22%3E%3CmxGeometry%20width%3D%2230%22%20height%3D%2230%22%20as%3D%22geometry%22%3E%3CmxRectangle%20width%3D%2230%22%20height%3D%2230%22%20as%3D%22alternateBounds%22%2F%3E%3C%2FmxGeometry%3E%3C%2FmxCell%3E%3CmxCell%20id%3D%228%22%20value%3D%22Row%201%22%20style%3D%22shape%3DpartialRectangle%3Bconnectable%3D0%3BfillColor%3Dnone%3Btop%3D0%3Bleft%3D0%3Bbottom%3D0%3Bright%3D0%3Balign%3Dleft%3BspacingLeft%3D6%3Boverflow%3Dhidden%3BwhiteSpace%3Dwrap%3Bhtml%3D1%3B%22%20vertex%3D%221%22%20parent%3D%226%22%3E%3CmxGeometry%20x%3D%2230%22%20width%3D%22150%22%20height%3D%2230%22%20as%3D%22geometry%22%3E%3CmxRectangle%20width%3D%22150%22%20height%3D%2230%22%20as%3D%22alternateBounds%22%2F%3E%3C%2FmxGeometry%3E%3C%2FmxCell%3E%3CmxCell%20id%3D%229%22%20value%3D%22%22%20style%3D%22shape%3DtableRow%3Bhorizontal%3D0%3BstartSize%3D0%3BswimlaneHead%3D0%3BswimlaneBody%3D0%3BfillColor%3Dnone%3Bcollapsible%3D0%3BdropTarget%3D0%3Bpoints%3D%5B%5B0%2C0.5%5D%2C%5B1%2C0.5%5D%5D%3BportConstraint%3Deastwest%3Btop%3D0%3Bleft%3D0%3Bright%3D0%3Bbottom%3D0%3B%22%20vertex%3D%221%22%20parent%3D%222%22%3E%3CmxGeometry%20y%3D%2290%22%20width%3D%22180%22%20height%3D%2230%22%20as%3D%22geometry%22%2F%3E%3C%2FmxCell%3E%3CmxCell%20id%3D%2210%22%20value%3D%22%22%20style%3D%22shape%3DpartialRectangle%3Bconnectable%3D0%3BfillColor%3Dnone%3Btop%3D0%3Bleft%3D0%3Bbottom%3D0%3Bright%3D0%3Beditable%3D1%3Boverflow%3Dhidden%3BwhiteSpace%3Dwrap%3Bhtml%3D1%3B%22%20vertex%3D%221%22%20parent%3D%229%22%3E%3CmxGeometry%20width%3D%2230%22%20height%3D%2230%22%20as%3D%22geometry%22%3E%3CmxRectangle%20width%3D%2230%22%20height%3D%2230%22%20as%3D%22alternateBounds%22%2F%3E%3C%2FmxGeometry%3E%3C%2FmxCell%3E%3CmxCell%20id%3D%2211%22%20value%3D%22Row%202%22%20style%3D%22shape%3DpartialRectangle%3Bconnectable%3D0%3BfillColor%3Dnone%3Btop%3D0%3Bleft%3D0%3Bbottom%3D0%3Bright%3D0%3Balign%3Dleft%3BspacingLeft%3D6%3Boverflow%3Dhidden%3BwhiteSpace%3Dwrap%3Bhtml%3D1%3B%22%20vertex%3D%221%22%20parent%3D%229%22%3E%3CmxGeometry%20x%3D%2230%22%20width%3D%22150%22%20height%3D%2230%22%20as%3D%22geometry%22%3E%3CmxRectangle%20width%3D%22150%22%20height%3D%2230%22%20as%3D%22alternateBounds%22%2F%3E%3C%2FmxGeometry%3E%3C%2FmxCell%3E%3CmxCell%20id%3D%2212%22%20value%3D%22%22%20style%3D%22shape%3DtableRow%3Bhorizontal%3D0%3BstartSize%3D0%3BswimlaneHead%3D0%3BswimlaneBody%3D0%3BfillColor%3Dnone%3Bcollapsible%3D0%3BdropTarget%3D0%3Bpoints%3D%5B%5B0%2C0.5%5D%2C%5B1%2C0.5%5D%5D%3BportConstraint%3Deastwest%3Btop%3D0%3Bleft%3D0%3Bright%3D0%3Bbottom%3D0%3B%22%20vertex%3D%221%22%20parent%3D%222%22%3E%3CmxGeometry%20y%3D%22120%22%20width%3D%22180%22%20height%3D%2230%22%20as%3D%22geometry%22%2F%3E%3C%2FmxCell%3E%3CmxCell%20id%3D%2213%22%20value%3D%22%22%20style%3D%22shape%3DpartialRectangle%3Bconnectable%3D0%3BfillColor%3Dnone%3Btop%3D0%3Bleft%3D0%3Bbottom%3D0%3Bright%3D0%3Beditable%3D1%3Boverflow%3Dhidden%3BwhiteSpace%3Dwrap%3Bhtml%3D1%3B%22%20vertex%3D%221%22%20parent%3D%2212%22%3E%3CmxGeometry%20width%3D%2230%22%20height%3D%2230%22%20as%3D%22geometry%22%3E%3CmxRectangle%20width%3D%2230%22%20height%3D%2230%22%20as%3D%22alternateBounds%22%2F%3E%3C%2FmxGeometry%3E%3C%2FmxCell%3E%3CmxCell%20id%3D%2214%22%20value%3D%22Row%203%22%20style%3D%22shape%3DpartialRectangle%3Bconnectable%3D0%3BfillColor%3Dnone%3Btop%3D0%3Bleft%3D0%3Bbottom%3D0%3Bright%3D0%3Balign%3Dleft%3BspacingLeft%3D6%3Boverflow%3Dhidden%3BwhiteSpace%3Dwrap%3Bhtml%3D1%3B%22%20vertex%3D%221%22%20parent%3D%2212%22%3E%3CmxGeometry%20x%3D%2230%22%20width%3D%22150%22%20height%3D%2230%22%20as%3D%22geometry%22%3E%3CmxRectangle%20width%3D%22150%22%20height%3D%2230%22%20as%3D%22alternateBounds%22%2F%3E%3C%2FmxGeometry%3E%3C%2FmxCell%3E%3C%2Froot%3E%3C%2FmxGraphModel%3E&lt;/span&gt;&lt;/font&gt;" style="shape=table;startSize=30;container=1;collapsible=1;childLayout=tableLayout;fixedRows=1;rowLines=0;fontStyle=1;align=center;resizeLast=1;html=1;fontFamily=Helvetica;textShadow=0;textOpacity=80;labelBackgroundColor=none;fillColor=#cce5ff;strokeColor=#36393d;rounded=1;gradientColor=none;fontColor=#1A1A1A;" vertex="1" parent="1">
          <mxGeometry x="560" y="60" width="268" height="90" as="geometry" />
        </mxCell>
        <mxCell id="6LVos0vK3omcchi-InMu-54" value="" style="shape=tableRow;horizontal=0;startSize=0;swimlaneHead=0;swimlaneBody=0;fillColor=none;collapsible=0;dropTarget=0;points=[[0,0.5],[1,0.5]];portConstraint=eastwest;top=0;left=0;right=0;bottom=1;align=left;fontFamily=Helvetica;textShadow=0;textOpacity=80;labelBackgroundColor=none;strokeColor=#D0CEE2;fontColor=#1A1A1A;rounded=1;" vertex="1" parent="6LVos0vK3omcchi-InMu-53">
          <mxGeometry y="30" width="268" height="30" as="geometry" />
        </mxCell>
        <mxCell id="6LVos0vK3omcchi-InMu-55" value="PK" style="shape=partialRectangle;connectable=0;fillColor=none;top=0;left=0;bottom=0;right=0;fontStyle=1;overflow=hidden;whiteSpace=wrap;html=1;align=center;fontFamily=Helvetica;textShadow=0;textOpacity=80;labelBackgroundColor=none;strokeColor=#D0CEE2;fontColor=#FF6A08;rounded=1;" vertex="1" parent="6LVos0vK3omcchi-InMu-54">
          <mxGeometry width="30" height="30" as="geometry">
            <mxRectangle width="30" height="30" as="alternateBounds" />
          </mxGeometry>
        </mxCell>
        <mxCell id="6LVos0vK3omcchi-InMu-56" value="topic_id SERIAL" style="shape=partialRectangle;connectable=0;fillColor=none;top=0;left=0;bottom=0;right=0;align=left;spacingLeft=6;fontStyle=5;overflow=hidden;whiteSpace=wrap;html=1;fontFamily=Helvetica;textShadow=0;textOpacity=80;labelBackgroundColor=none;strokeColor=#D0CEE2;fontColor=#1A1A1A;rounded=1;" vertex="1" parent="6LVos0vK3omcchi-InMu-54">
          <mxGeometry x="30" width="238" height="30" as="geometry">
            <mxRectangle width="238" height="30" as="alternateBounds" />
          </mxGeometry>
        </mxCell>
        <mxCell id="6LVos0vK3omcchi-InMu-57" value="" style="shape=tableRow;horizontal=0;startSize=0;swimlaneHead=0;swimlaneBody=0;fillColor=none;collapsible=0;dropTarget=0;points=[[0,0.5],[1,0.5]];portConstraint=eastwest;top=0;left=0;right=0;bottom=0;align=left;fontFamily=Helvetica;textShadow=0;textOpacity=80;labelBackgroundColor=none;strokeColor=#D0CEE2;fontColor=#1A1A1A;rounded=1;" vertex="1" parent="6LVos0vK3omcchi-InMu-53">
          <mxGeometry y="60" width="268" height="30" as="geometry" />
        </mxCell>
        <mxCell id="6LVos0vK3omcchi-InMu-58" value="" style="shape=partialRectangle;connectable=0;fillColor=none;top=0;left=0;bottom=0;right=0;editable=1;overflow=hidden;whiteSpace=wrap;html=1;align=left;fontFamily=Helvetica;textShadow=0;textOpacity=80;labelBackgroundColor=none;strokeColor=#D0CEE2;fontColor=#1A1A1A;rounded=1;" vertex="1" parent="6LVos0vK3omcchi-InMu-57">
          <mxGeometry width="30" height="30" as="geometry">
            <mxRectangle width="30" height="30" as="alternateBounds" />
          </mxGeometry>
        </mxCell>
        <mxCell id="6LVos0vK3omcchi-InMu-59" value="topic_name VARCHAR(100): NOT NULL" style="shape=partialRectangle;connectable=0;fillColor=none;top=0;left=0;bottom=0;right=0;align=left;spacingLeft=6;overflow=hidden;whiteSpace=wrap;html=1;fontFamily=Helvetica;textShadow=0;textOpacity=80;labelBackgroundColor=none;strokeColor=#D0CEE2;fontColor=#1A1A1A;rounded=1;" vertex="1" parent="6LVos0vK3omcchi-InMu-57">
          <mxGeometry x="30" width="238" height="30" as="geometry">
            <mxRectangle width="238" height="30" as="alternateBounds" />
          </mxGeometry>
        </mxCell>
        <mxCell id="6LVos0vK3omcchi-InMu-66" value="&lt;font&gt;trianer&lt;/font&gt;" style="shape=table;startSize=30;container=1;collapsible=1;childLayout=tableLayout;fixedRows=1;rowLines=0;fontStyle=1;align=center;resizeLast=1;html=1;fontFamily=Helvetica;textShadow=0;textOpacity=80;labelBackgroundColor=none;fillColor=#cce5ff;strokeColor=default;rounded=1;swimlaneFillColor=none;gradientColor=none;fontColor=#1A1A1A;" vertex="1" parent="1">
          <mxGeometry x="904" y="255" width="261" height="180" as="geometry" />
        </mxCell>
        <mxCell id="6LVos0vK3omcchi-InMu-67" value="" style="shape=tableRow;horizontal=0;startSize=0;swimlaneHead=0;swimlaneBody=0;fillColor=none;collapsible=0;dropTarget=0;points=[[0,0.5],[1,0.5]];portConstraint=eastwest;top=0;left=0;right=0;bottom=1;align=left;fontFamily=Helvetica;textShadow=0;textOpacity=80;labelBackgroundColor=none;strokeColor=#D0CEE2;fontColor=#1A1A1A;rounded=1;" vertex="1" parent="6LVos0vK3omcchi-InMu-66">
          <mxGeometry y="30" width="261" height="30" as="geometry" />
        </mxCell>
        <mxCell id="6LVos0vK3omcchi-InMu-68" value="&lt;font color=&quot;#ff6a08&quot;&gt;PK&lt;/font&gt;" style="shape=partialRectangle;connectable=0;fillColor=none;top=0;left=0;bottom=0;right=0;fontStyle=1;overflow=hidden;whiteSpace=wrap;html=1;align=center;fontFamily=Helvetica;textShadow=0;textOpacity=80;labelBackgroundColor=none;strokeColor=#D0CEE2;fontColor=#1A1A1A;rounded=1;" vertex="1" parent="6LVos0vK3omcchi-InMu-67">
          <mxGeometry width="30" height="30" as="geometry">
            <mxRectangle width="30" height="30" as="alternateBounds" />
          </mxGeometry>
        </mxCell>
        <mxCell id="6LVos0vK3omcchi-InMu-69" value="trianer_id SERIAL" style="shape=partialRectangle;connectable=0;fillColor=none;top=0;left=0;bottom=0;right=0;align=left;spacingLeft=6;fontStyle=5;overflow=hidden;whiteSpace=wrap;html=1;fontFamily=Helvetica;textShadow=0;textOpacity=80;labelBackgroundColor=none;strokeColor=#D0CEE2;fontColor=#1A1A1A;rounded=1;" vertex="1" parent="6LVos0vK3omcchi-InMu-67">
          <mxGeometry x="30" width="231" height="30" as="geometry">
            <mxRectangle width="231" height="30" as="alternateBounds" />
          </mxGeometry>
        </mxCell>
        <mxCell id="6LVos0vK3omcchi-InMu-70" value="" style="shape=tableRow;horizontal=0;startSize=0;swimlaneHead=0;swimlaneBody=0;fillColor=none;collapsible=0;dropTarget=0;points=[[0,0.5],[1,0.5]];portConstraint=eastwest;top=0;left=0;right=0;bottom=0;align=left;fontFamily=Helvetica;textShadow=0;textOpacity=80;labelBackgroundColor=none;strokeColor=#D0CEE2;fontColor=#1A1A1A;rounded=1;" vertex="1" parent="6LVos0vK3omcchi-InMu-66">
          <mxGeometry y="60" width="261" height="30" as="geometry" />
        </mxCell>
        <mxCell id="6LVos0vK3omcchi-InMu-71" value="" style="shape=partialRectangle;connectable=0;fillColor=none;top=0;left=0;bottom=0;right=0;editable=1;overflow=hidden;whiteSpace=wrap;html=1;align=left;fontFamily=Helvetica;textShadow=0;textOpacity=80;labelBackgroundColor=none;strokeColor=#D0CEE2;fontColor=#1A1A1A;rounded=1;" vertex="1" parent="6LVos0vK3omcchi-InMu-70">
          <mxGeometry width="30" height="30" as="geometry">
            <mxRectangle width="30" height="30" as="alternateBounds" />
          </mxGeometry>
        </mxCell>
        <mxCell id="6LVos0vK3omcchi-InMu-72" value="first_name VARCHAR(50):&amp;nbsp; &amp;nbsp;NOT NULL&lt;span style=&quot;white-space: pre;&quot;&gt;&#x9;&lt;/span&gt;" style="shape=partialRectangle;connectable=0;fillColor=none;top=0;left=0;bottom=0;right=0;align=left;spacingLeft=6;overflow=hidden;whiteSpace=wrap;html=1;fontFamily=Helvetica;textShadow=0;textOpacity=80;labelBackgroundColor=none;strokeColor=#D0CEE2;fontColor=#1A1A1A;rounded=1;" vertex="1" parent="6LVos0vK3omcchi-InMu-70">
          <mxGeometry x="30" width="231" height="30" as="geometry">
            <mxRectangle width="231" height="30" as="alternateBounds" />
          </mxGeometry>
        </mxCell>
        <mxCell id="6LVos0vK3omcchi-InMu-73" value="" style="shape=tableRow;horizontal=0;startSize=0;swimlaneHead=0;swimlaneBody=0;fillColor=none;collapsible=0;dropTarget=0;points=[[0,0.5],[1,0.5]];portConstraint=eastwest;top=0;left=0;right=0;bottom=0;align=left;fontFamily=Helvetica;textShadow=0;textOpacity=80;labelBackgroundColor=none;strokeColor=#D0CEE2;fontColor=#1A1A1A;rounded=1;" vertex="1" parent="6LVos0vK3omcchi-InMu-66">
          <mxGeometry y="90" width="261" height="30" as="geometry" />
        </mxCell>
        <mxCell id="6LVos0vK3omcchi-InMu-74" value="" style="shape=partialRectangle;connectable=0;fillColor=none;top=0;left=0;bottom=0;right=0;editable=1;overflow=hidden;whiteSpace=wrap;html=1;align=left;fontFamily=Helvetica;textShadow=0;textOpacity=80;labelBackgroundColor=none;strokeColor=#D0CEE2;fontColor=#1A1A1A;rounded=1;" vertex="1" parent="6LVos0vK3omcchi-InMu-73">
          <mxGeometry width="30" height="30" as="geometry">
            <mxRectangle width="30" height="30" as="alternateBounds" />
          </mxGeometry>
        </mxCell>
        <mxCell id="6LVos0vK3omcchi-InMu-75" value="last_name VARCHAR(100): NOT NULL" style="shape=partialRectangle;connectable=0;fillColor=none;top=0;left=0;bottom=0;right=0;align=left;spacingLeft=6;overflow=hidden;whiteSpace=wrap;html=1;fontFamily=Helvetica;textShadow=0;textOpacity=80;labelBackgroundColor=none;strokeColor=#D0CEE2;fontColor=#1A1A1A;rounded=1;" vertex="1" parent="6LVos0vK3omcchi-InMu-73">
          <mxGeometry x="30" width="231" height="30" as="geometry">
            <mxRectangle width="231" height="30" as="alternateBounds" />
          </mxGeometry>
        </mxCell>
        <mxCell id="6LVos0vK3omcchi-InMu-76" value="" style="shape=tableRow;horizontal=0;startSize=0;swimlaneHead=0;swimlaneBody=0;fillColor=none;collapsible=0;dropTarget=0;points=[[0,0.5],[1,0.5]];portConstraint=eastwest;top=0;left=0;right=0;bottom=0;align=left;fontFamily=Helvetica;textShadow=0;textOpacity=80;labelBackgroundColor=none;strokeColor=#D0CEE2;fontColor=#1A1A1A;rounded=1;" vertex="1" parent="6LVos0vK3omcchi-InMu-66">
          <mxGeometry y="120" width="261" height="30" as="geometry" />
        </mxCell>
        <mxCell id="6LVos0vK3omcchi-InMu-77" value="" style="shape=partialRectangle;connectable=0;fillColor=none;top=0;left=0;bottom=0;right=0;editable=1;overflow=hidden;whiteSpace=wrap;html=1;align=left;fontFamily=Helvetica;textShadow=0;textOpacity=80;labelBackgroundColor=none;strokeColor=#D0CEE2;fontColor=#1A1A1A;rounded=1;" vertex="1" parent="6LVos0vK3omcchi-InMu-76">
          <mxGeometry width="30" height="30" as="geometry">
            <mxRectangle width="30" height="30" as="alternateBounds" />
          </mxGeometry>
        </mxCell>
        <mxCell id="6LVos0vK3omcchi-InMu-78" value="email VARCHAR(100):&amp;nbsp; &amp;nbsp; &amp;nbsp; &amp;nbsp; &amp;nbsp;NOT NULL" style="shape=partialRectangle;connectable=0;fillColor=none;top=0;left=0;bottom=0;right=0;align=left;spacingLeft=6;overflow=hidden;whiteSpace=wrap;html=1;fontFamily=Helvetica;textShadow=0;textOpacity=80;labelBackgroundColor=none;strokeColor=#D0CEE2;fontColor=#1A1A1A;rounded=1;" vertex="1" parent="6LVos0vK3omcchi-InMu-76">
          <mxGeometry x="30" width="231" height="30" as="geometry">
            <mxRectangle width="231" height="30" as="alternateBounds" />
          </mxGeometry>
        </mxCell>
        <mxCell id="6LVos0vK3omcchi-InMu-92" value="" style="shape=tableRow;horizontal=0;startSize=0;swimlaneHead=0;swimlaneBody=0;fillColor=none;collapsible=0;dropTarget=0;points=[[0,0.5],[1,0.5]];portConstraint=eastwest;top=0;left=0;right=0;bottom=0;align=left;fontFamily=Helvetica;textShadow=0;textOpacity=80;labelBackgroundColor=none;strokeColor=#D0CEE2;fontColor=#1A1A1A;rounded=1;" vertex="1" parent="6LVos0vK3omcchi-InMu-66">
          <mxGeometry y="150" width="261" height="30" as="geometry" />
        </mxCell>
        <mxCell id="6LVos0vK3omcchi-InMu-93" value="&lt;b&gt;FK&lt;/b&gt;" style="shape=partialRectangle;connectable=0;fillColor=none;top=0;left=0;bottom=0;right=0;editable=1;overflow=hidden;whiteSpace=wrap;html=1;align=center;fontFamily=Helvetica;textShadow=0;textOpacity=80;labelBackgroundColor=none;strokeColor=#D0CEE2;fontColor=#0066CC;rounded=1;" vertex="1" parent="6LVos0vK3omcchi-InMu-92">
          <mxGeometry width="30" height="30" as="geometry">
            <mxRectangle width="30" height="30" as="alternateBounds" />
          </mxGeometry>
        </mxCell>
        <mxCell id="6LVos0vK3omcchi-InMu-94" value="topic_id: SMALLINT:&lt;span style=&quot;white-space: pre;&quot;&gt;&#x9;&lt;/span&gt;&amp;nbsp; &amp;nbsp; &amp;nbsp;NOT NULL" style="shape=partialRectangle;connectable=0;fillColor=none;top=0;left=0;bottom=0;right=0;align=left;spacingLeft=6;overflow=hidden;whiteSpace=wrap;html=1;fontFamily=Helvetica;textShadow=0;textOpacity=80;labelBackgroundColor=none;strokeColor=#D0CEE2;fontColor=#1A1A1A;rounded=1;" vertex="1" parent="6LVos0vK3omcchi-InMu-92">
          <mxGeometry x="30" width="231" height="30" as="geometry">
            <mxRectangle width="231" height="30" as="alternateBounds" />
          </mxGeometry>
        </mxCell>
        <mxCell id="6LVos0vK3omcchi-InMu-83" value="" style="shape=tableRow;horizontal=0;startSize=0;swimlaneHead=0;swimlaneBody=0;fillColor=none;collapsible=0;dropTarget=0;points=[[0,0.5],[1,0.5]];portConstraint=eastwest;top=0;left=0;right=0;bottom=0;align=left;fontFamily=Helvetica;textShadow=0;textOpacity=80;labelBackgroundColor=none;strokeColor=#D0CEE2;fontColor=#1A1A1A;rounded=1;" vertex="1" parent="1">
          <mxGeometry x="30" y="370" width="240" height="30" as="geometry" />
        </mxCell>
        <mxCell id="6LVos0vK3omcchi-InMu-84" value="" style="shape=partialRectangle;connectable=0;fillColor=none;top=0;left=0;bottom=0;right=0;editable=1;overflow=hidden;whiteSpace=wrap;html=1;align=left;fontFamily=Helvetica;textShadow=0;textOpacity=80;labelBackgroundColor=none;strokeColor=#D0CEE2;fontColor=#1A1A1A;rounded=1;" vertex="1" parent="6LVos0vK3omcchi-InMu-83">
          <mxGeometry width="30" height="30" as="geometry">
            <mxRectangle width="30" height="30" as="alternateBounds" />
          </mxGeometry>
        </mxCell>
      </root>
    </mxGraphModel>
  </diagram>
</mxfile>
